<svg xmlns="http://www.w3.org/2000/svg" width="1200" height="630" viewBox="0 0 1200 630" fill="none">
  <defs>
    <linearGradient id="bgLight" x1="0" y1="0" x2="1200" y2="630" gradientUnits="userSpaceOnUse">
      <stop offset="0" stop-color="#FAFAFB"/>
      <stop offset="1" stop-color="#EDEDEF"/>
    </linearGradient>
    <radialGradient id="bgWarm" cx="0" cy="0" r="1" gradientUnits="userSpaceOnUse" gradientTransform="translate(1010 80) rotate(125) scale(260 320)">
      <stop stop-color="#F2E0A9" stop-opacity="0.12"/>
      <stop offset="1" stop-color="#F2E0A9" stop-opacity="0"/>
    </radialGradient>
    <linearGradient id="gold" x1="0" y1="0" x2="1" y2="1">
      <stop stop-color="#F5D985"/>
      <stop offset="1" stop-color="#C9972B"/>
    </linearGradient>
    <linearGradient id="goldLine" x1="0" y1="0" x2="1" y2="0">
      <stop stop-color="#D3A33A"/>
      <stop offset="1" stop-color="#E3BF6A"/>
    </linearGradient>
    <filter id="shadowLight" x="-20%" y="-20%" width="140%" height="140%">
      <feDropShadow dx="0" dy="12" stdDeviation="18" flood-color="#A6A6A6" flood-opacity="0.20"/>
    </filter>
  </defs>

  <rect width="1200" height="630" fill="url(#bgLight)"/>
  <rect width="1200" height="630" fill="url(#bgWarm)"/>

  <g opacity="0.25" stroke="#D8D8DD" stroke-width="1">
    <path d="M700 0V630"/>
    <path d="M760 0V630"/>
    <path d="M820 0V630"/>
    <path d="M880 0V630"/>
    <path d="M940 0V630"/>
    <path d="M1000 0V630"/>
    <path d="M1060 0V630"/>
    <path d="M1120 0V630"/>
    <path d="M680 60H1200"/>
    <path d="M680 120H1200"/>
    <path d="M680 180H1200"/>
    <path d="M680 240H1200"/>
    <path d="M680 300H1200"/>
    <path d="M680 360H1200"/>
    <path d="M680 420H1200"/>
    <path d="M680 480H1200"/>
    <path d="M680 540H1200"/>
  </g>

  <!-- dotted motif -->
  <g opacity="0.95">
    <g fill="#C8C8CE">
      <circle cx="36" cy="42" r="2.1"/><circle cx="52" cy="42" r="2.1"/><circle cx="68" cy="42" r="2.1"/><circle cx="84" cy="42" r="2.1"/><circle cx="100" cy="42" r="2.1"/><circle cx="116" cy="42" r="2.1"/><circle cx="132" cy="42" r="2.1"/>
      <circle cx="36" cy="58" r="2.1"/><circle cx="52" cy="58" r="2.1"/><circle cx="68" cy="58" r="2.1"/><circle cx="84" cy="58" r="2.1"/><circle cx="100" cy="58" r="2.1"/><circle cx="116" cy="58" r="2.1"/><circle cx="132" cy="58" r="2.1"/>
      <circle cx="36" cy="74" r="2.1"/><circle cx="52" cy="74" r="2.1"/><circle cx="68" cy="74" r="2.1"/><circle cx="84" cy="74" r="2.1"/><circle cx="100" cy="74" r="2.1"/><circle cx="116" cy="74" r="2.1"/><circle cx="132" cy="74" r="2.1"/>
      <circle cx="36" cy="90" r="2.1"/><circle cx="52" cy="90" r="2.1"/><circle cx="68" cy="90" r="2.1"/><circle cx="84" cy="90" r="2.1"/><circle cx="100" cy="90" r="2.1"/><circle cx="116" cy="90" r="2.1"/><circle cx="132" cy="90" r="2.1"/>
      <circle cx="36" cy="106" r="2.1"/><circle cx="52" cy="106" r="2.1"/><circle cx="68" cy="106" r="2.1"/><circle cx="84" cy="106" r="2.1"/><circle cx="100" cy="106" r="2.1"/><circle cx="116" cy="106" r="2.1"/><circle cx="132" cy="106" r="2.1"/>
      <circle cx="36" cy="122" r="2.1"/><circle cx="52" cy="122" r="2.1"/><circle cx="68" cy="122" r="2.1"/><circle cx="84" cy="122" r="2.1"/><circle cx="100" cy="122" r="2.1"/><circle cx="116" cy="122" r="2.1"/><circle cx="132" cy="122" r="2.1"/>
    </g>
    <g fill="#D4A53F">
      <circle cx="84" cy="58" r="2.1"/><circle cx="100" cy="58" r="2.1"/><circle cx="84" cy="74" r="2.1"/><circle cx="100" cy="74" r="2.1"/><circle cx="116" cy="74" r="2.1"/>
    </g>
  </g>

  <!-- Left text -->
  <text x="58" y="176" font-family="Inter, Pretendard, Arial, sans-serif" font-size="46" font-weight="700" fill="#3F4650">&lt;/&gt;</text>
  <text x="58" y="300" font-family="Inter, Pretendard, Arial, sans-serif" font-size="78" font-weight="800" fill="#232A34">Jong Eun </text>
  <text x="405" y="300" font-family="Inter, Pretendard, Arial, sans-serif" font-size="78" font-weight="800" fill="url(#gold)">Lee</text>
  <text x="58" y="372" font-family="Inter, Pretendard, Arial, sans-serif" font-size="46" font-weight="400" fill="#505A65">Backend Developer Portfolio</text>
  <rect x="58" y="404" width="88" height="5" rx="2.5" fill="url(#goldLine)"/>
  <text x="58" y="468" font-family="Inter, Pretendard, Arial, sans-serif" font-size="27" font-weight="400" fill="#434B56">Spring Boot</text>
  <circle cx="205" cy="460" r="3.5" fill="#D2A13D"/>
  <text x="220" y="468" font-family="Inter, Pretendard, Arial, sans-serif" font-size="27" font-weight="400" fill="#434B56">FastAPI</text>
  <circle cx="334" cy="460" r="3.5" fill="#D2A13D"/>
  <text x="350" y="468" font-family="Inter, Pretendard, Arial, sans-serif" font-size="27" font-weight="400" fill="#434B56">AWS</text>
  <circle cx="422" cy="460" r="3.5" fill="#D2A13D"/>
  <text x="438" y="468" font-family="Inter, Pretendard, Arial, sans-serif" font-size="27" font-weight="400" fill="#434B56">DevOps</text>

  <!-- Right illustration -->
  <g transform="translate(700 118)" filter="url(#shadowLight)">
    <!-- cloud -->
    <path d="M219 25c8-28 34-48 65-48 25 0 47 13 58 34 6-2 12-3 18-3 31 0 56 25 56 56 0 30-24 55-54 56H218c-31 0-56-25-56-56 0-29 22-53 50-56 3 0 5-1 7-1z" fill="#F6F6F7" stroke="#E4D5AC" stroke-width="4"/>
    <path d="M296 103V59M296 59l-13 13M296 59l13 13" stroke="#D3A33A" stroke-width="5" stroke-linecap="round" stroke-linejoin="round"/>

    <path d="M172 148V184M236 136V183M296 132V184M356 136V182" stroke="#D1A447" stroke-width="3" stroke-dasharray="8 8" opacity="0.9"/>
    <path d="M134 150l-22 11v64M382 148l26 14v66" stroke="#D1A447" stroke-width="3" stroke-dasharray="8 8" opacity="0.75" fill="none"/>

    <rect x="150" y="192" width="255" height="122" rx="18" fill="#EDEDEF" stroke="#D1D2D8" stroke-width="2"/>

    <g>
      <g transform="translate(177 144)">
        <rect x="0" y="0" width="66" height="126" rx="8" fill="#F5F5F6" stroke="#D5D7DC"/>
        <rect x="10" y="18" width="46" height="84" rx="4" fill="#4D525A"/>
        <g fill="#D3A33A">
          <circle cx="18" cy="28" r="1.5"/><circle cx="24" cy="28" r="1.5"/><circle cx="30" cy="28" r="1.5"/>
          <circle cx="18" cy="42" r="1.5"/><circle cx="24" cy="42" r="1.5"/><circle cx="30" cy="42" r="1.5"/>
          <circle cx="18" cy="56" r="1.5"/><circle cx="24" cy="56" r="1.5"/><circle cx="30" cy="56" r="1.5"/>
          <circle cx="18" cy="70" r="1.5"/><circle cx="24" cy="70" r="1.5"/><circle cx="30" cy="70" r="1.5"/>
          <circle cx="18" cy="84" r="1.5"/><circle cx="24" cy="84" r="1.5"/><circle cx="30" cy="84" r="1.5"/>
        </g>
        <g stroke="#EFEFEF" stroke-width="1.1">
          <line x1="36" y1="28" x2="49" y2="28"/><line x1="36" y1="42" x2="49" y2="42"/><line x1="36" y1="56" x2="49" y2="56"/><line x1="36" y1="70" x2="49" y2="70"/><line x1="36" y1="84" x2="49" y2="84"/>
        </g>
      </g>
      <g transform="translate(252 158)">
        <rect x="0" y="0" width="66" height="126" rx="8" fill="#F5F5F6" stroke="#D5D7DC"/>
        <rect x="10" y="18" width="46" height="84" rx="4" fill="#4D525A"/>
        <g fill="#D3A33A">
          <circle cx="18" cy="28" r="1.5"/><circle cx="24" cy="28" r="1.5"/><circle cx="30" cy="28" r="1.5"/>
          <circle cx="18" cy="42" r="1.5"/><circle cx="24" cy="42" r="1.5"/><circle cx="30" cy="42" r="1.5"/>
          <circle cx="18" cy="56" r="1.5"/><circle cx="24" cy="56" r="1.5"/><circle cx="30" cy="56" r="1.5"/>
          <circle cx="18" cy="70" r="1.5"/><circle cx="24" cy="70" r="1.5"/><circle cx="30" cy="70" r="1.5"/>
          <circle cx="18" cy="84" r="1.5"/><circle cx="24" cy="84" r="1.5"/><circle cx="30" cy="84" r="1.5"/>
        </g>
        <g stroke="#EFEFEF" stroke-width="1.1">
          <line x1="36" y1="28" x2="49" y2="28"/><line x1="36" y1="42" x2="49" y2="42"/><line x1="36" y1="56" x2="49" y2="56"/><line x1="36" y1="70" x2="49" y2="70"/><line x1="36" y1="84" x2="49" y2="84"/>
        </g>
      </g>
      <g transform="translate(327 170)">
        <rect x="0" y="0" width="66" height="126" rx="8" fill="#F5F5F6" stroke="#D5D7DC"/>
        <rect x="10" y="18" width="46" height="84" rx="4" fill="#4D525A"/>
        <g fill="#D3A33A">
          <circle cx="18" cy="28" r="1.5"/><circle cx="24" cy="28" r="1.5"/><circle cx="30" cy="28" r="1.5"/>
          <circle cx="18" cy="42" r="1.5"/><circle cx="24" cy="42" r="1.5"/><circle cx="30" cy="42" r="1.5"/>
          <circle cx="18" cy="56" r="1.5"/><circle cx="24" cy="56" r="1.5"/><circle cx="30" cy="56" r="1.5"/>
          <circle cx="18" cy="70" r="1.5"/><circle cx="24" cy="70" r="1.5"/><circle cx="30" cy="70" r="1.5"/>
          <circle cx="18" cy="84" r="1.5"/><circle cx="24" cy="84" r="1.5"/><circle cx="30" cy="84" r="1.5"/>
        </g>
        <g stroke="#EFEFEF" stroke-width="1.1">
          <line x1="36" y1="28" x2="49" y2="28"/><line x1="36" y1="42" x2="49" y2="42"/><line x1="36" y1="56" x2="49" y2="56"/><line x1="36" y1="70" x2="49" y2="70"/><line x1="36" y1="84" x2="49" y2="84"/>
        </g>
      </g>
    </g>

    <g transform="translate(87 249)">
      <rect x="0" y="0" width="72" height="110" rx="14" fill="#F5F5F6" stroke="#D5D7DC" stroke-width="2"/>
      <text x="14" y="48" font-family="Inter, Arial, sans-serif" font-size="24" font-weight="700" fill="#C9972B">API</text>
      <g stroke="#A8ADB6" stroke-width="2" opacity="0.8">
        <line x1="16" y1="63" x2="50" y2="63"/><line x1="16" y1="74" x2="48" y2="74"/><line x1="16" y1="85" x2="44" y2="85"/>
      </g>
    </g>

    <g transform="translate(434 258)">
      <ellipse cx="44" cy="14" rx="44" ry="14" fill="#F5F5F6" stroke="#D1D2D8"/>
      <rect x="0" y="14" width="88" height="76" rx="8" fill="#EFEFF1" stroke="#D1D2D8"/>
      <ellipse cx="44" cy="90" rx="44" ry="14" fill="#EFEFF1" stroke="#D1D2D8"/>
      <path d="M0 38h88M0 62h88" stroke="#D1A447" stroke-width="4" opacity="0.95"/>
    </g>

    <g transform="translate(206 386)">
      <rect x="0" y="0" width="128" height="90" rx="14" fill="#F5F5F6" stroke="#D5D7DC" stroke-width="2"/>
      <circle cx="18" cy="18" r="2.2" fill="#B8BDC6"/><circle cx="28" cy="18" r="2.2" fill="#D6B56B"/><circle cx="38" cy="18" r="2.2" fill="#C9972B"/>
      <g stroke-width="3" stroke-linecap="round">
        <line x1="18" y1="38" x2="64" y2="38" stroke="#B7BDC7"/>
        <line x1="18" y1="50" x2="76" y2="50" stroke="#D0A64C"/>
        <line x1="18" y1="62" x2="58" y2="62" stroke="#A8ADB6"/>
      </g>
      <text x="98" y="22" font-family="Inter, Arial, sans-serif" font-size="13" font-weight="700" fill="#C9972B">&lt;/&gt;</text>
    </g>

    <g transform="translate(344 388)">
      <rect x="0" y="0" width="156" height="92" rx="14" fill="#F5F5F6" stroke="#D5D7DC" stroke-width="2"/>
      <path d="M18 56l24-18 22 12 26-24 26 18" stroke="#D1A447" stroke-width="3" fill="none" stroke-linecap="round" stroke-linejoin="round"/>
      <circle cx="116" cy="44" r="4" fill="#C9972B"/>
      <circle cx="40" cy="77" r="13" stroke="#D0A64C" stroke-width="6" fill="none"/>
      <g fill="#C9972B">
        <rect x="108" y="58" width="8" height="18" rx="2"/><rect x="121" y="50" width="8" height="26" rx="2"/><rect x="134" y="42" width="8" height="34" rx="2"/>
      </g>
      <g stroke="#A8ADB6" stroke-width="2" opacity="0.8">
        <line x1="70" y1="72" x2="97" y2="72"/><line x1="70" y1="80" x2="103" y2="80"/>
      </g>
    </g>

    <g transform="translate(110 423)">
      <rect x="0" y="0" width="84" height="102" rx="16" fill="#F5F5F6" stroke="#D5D7DC" stroke-width="2"/>
      <path d="M0 18l16-18v18z" fill="#E3E4E8"/>
      <rect x="16" y="18" width="14" height="14" rx="3" fill="#DAB357"/>
      <g stroke="#A8ADB6" stroke-width="2" opacity="0.8">
        <line x1="18" y1="50" x2="55" y2="50"/><line x1="18" y1="62" x2="50" y2="62"/><line x1="18" y1="74" x2="46" y2="74"/>
      </g>
      <circle cx="62" cy="81" r="12" fill="#D0A64C"/>
      <path d="M57 81l4 4 6-8" stroke="#F8F8F8" stroke-width="3" stroke-linecap="round" stroke-linejoin="round"/>
    </g>

    <g transform="translate(505 440)">
      <path d="M0 44c10-8 22-13 36-13 16 0 30 6 41 16-3 15-14 31-41 46C12 79 1 63 0 44z" fill="#F5F5F6" stroke="#D1A447" stroke-width="3"/>
      <path d="M22 46l10 10 16-20" stroke="#C9972B" stroke-width="4" stroke-linecap="round" stroke-linejoin="round"/>
    </g>

    <g stroke="#D1A447" stroke-width="3" stroke-linecap="round" fill="none">
      <path d="M122 356c-20 0-28 13-28 25v15"/>
      <path d="M243 314v53"/>
      <path d="M322 314v55"/>
      <path d="M478 348v32"/>
      <path d="M192 474h14c11 0 18 9 18 18v4" stroke-dasharray="4 8" opacity="0.8"/>
    </g>
    <g fill="#D8B767">
      <circle cx="243" cy="367" r="4"/><circle cx="322" cy="369" r="4"/><circle cx="478" cy="380" r="4"/><circle cx="94" cy="396" r="4"/>
    </g>
  </g>
</svg>
