<svg xmlns="http://www.w3.org/2000/svg" width="1200" height="630" viewBox="0 0 1200 630" fill="none">
  <defs>
    <linearGradient id="bgBlue" x1="0" y1="0" x2="1200" y2="630" gradientUnits="userSpaceOnUse">
      <stop offset="0" stop-color="#020814"/>
      <stop offset="0.52" stop-color="#06122A"/>
      <stop offset="1" stop-color="#0A1C40"/>
    </linearGradient>
    <radialGradient id="glowBlue" cx="0" cy="0" r="1" gradientUnits="userSpaceOnUse" gradientTransform="translate(1035 88) rotate(124) scale(220 280)">
      <stop stop-color="#2D8CFF" stop-opacity="0.28"/>
      <stop offset="1" stop-color="#2D8CFF" stop-opacity="0"/>
    </radialGradient>
    <linearGradient id="nameBlue" x1="405" y1="160" x2="661" y2="160" gradientUnits="userSpaceOnUse">
      <stop offset="0" stop-color="#EAF4FF"/>
      <stop offset="1" stop-color="#3AA6FF"/>
    </linearGradient>
    <linearGradient id="lineBlue" x1="0" y1="0" x2="1" y2="0">
      <stop stop-color="#52BEFF"/>
      <stop offset="1" stop-color="#237DFF"/>
    </linearGradient>
    <linearGradient id="metal" x1="0" y1="0" x2="1" y2="1">
      <stop stop-color="#D4E6FF"/>
      <stop offset="1" stop-color="#7DA6D9"/>
    </linearGradient>
    <filter id="softGlow" x="-50%" y="-50%" width="200%" height="200%">
      <feGaussianBlur stdDeviation="8" result="blur"/>
      <feMerge>
        <feMergeNode in="blur"/>
        <feMergeNode in="SourceGraphic"/>
      </feMerge>
    </filter>
    <filter id="shadow" x="-20%" y="-20%" width="140%" height="140%">
      <feDropShadow dx="0" dy="12" stdDeviation="18" flood-color="#000000" flood-opacity="0.28"/>
    </filter>
  </defs>

  <rect width="1200" height="630" fill="url(#bgBlue)"/>
  <rect width="1200" height="630" fill="url(#glowBlue)"/>

  <!-- subtle grid -->
  <g opacity="0.08" stroke="#6FA9FF" stroke-width="1">
    <path d="M700 0V630"/>
    <path d="M760 0V630"/>
    <path d="M820 0V630"/>
    <path d="M880 0V630"/>
    <path d="M940 0V630"/>
    <path d="M1000 0V630"/>
    <path d="M1060 0V630"/>
    <path d="M1120 0V630"/>
    <path d="M680 60H1200"/>
    <path d="M680 120H1200"/>
    <path d="M680 180H1200"/>
    <path d="M680 240H1200"/>
    <path d="M680 300H1200"/>
    <path d="M680 360H1200"/>
    <path d="M680 420H1200"/>
    <path d="M680 480H1200"/>
    <path d="M680 540H1200"/>
  </g>

  <!-- dotted motif -->
  <g opacity="0.85">
    <g fill="#2FA5FF">
      <circle cx="36" cy="42" r="2.1"/><circle cx="52" cy="42" r="2.1"/><circle cx="68" cy="42" r="2.1"/><circle cx="84" cy="42" r="2.1"/><circle cx="100" cy="42" r="2.1"/><circle cx="116" cy="42" r="2.1"/><circle cx="132" cy="42" r="2.1"/>
      <circle cx="36" cy="58" r="2.1"/><circle cx="52" cy="58" r="2.1"/><circle cx="68" cy="58" r="2.1"/><circle cx="84" cy="58" r="2.1"/><circle cx="100" cy="58" r="2.1"/><circle cx="116" cy="58" r="2.1"/><circle cx="132" cy="58" r="2.1"/>
      <circle cx="36" cy="74" r="2.1"/><circle cx="52" cy="74" r="2.1"/><circle cx="68" cy="74" r="2.1"/><circle cx="84" cy="74" r="2.1"/><circle cx="100" cy="74" r="2.1"/><circle cx="116" cy="74" r="2.1"/><circle cx="132" cy="74" r="2.1"/>
      <circle cx="36" cy="90" r="2.1"/><circle cx="52" cy="90" r="2.1"/><circle cx="68" cy="90" r="2.1"/><circle cx="84" cy="90" r="2.1"/><circle cx="100" cy="90" r="2.1"/><circle cx="116" cy="90" r="2.1"/><circle cx="132" cy="90" r="2.1"/>
      <circle cx="36" cy="106" r="2.1"/><circle cx="52" cy="106" r="2.1"/><circle cx="68" cy="106" r="2.1"/><circle cx="84" cy="106" r="2.1"/><circle cx="100" cy="106" r="2.1"/><circle cx="116" cy="106" r="2.1"/><circle cx="132" cy="106" r="2.1"/>
      <circle cx="36" cy="122" r="2.1"/><circle cx="52" cy="122" r="2.1"/><circle cx="68" cy="122" r="2.1"/><circle cx="84" cy="122" r="2.1"/><circle cx="100" cy="122" r="2.1"/><circle cx="116" cy="122" r="2.1"/><circle cx="132" cy="122" r="2.1"/>
    </g>
  </g>

  <!-- Left text block -->
  <text x="58" y="176" font-family="Inter, Pretendard, Arial, sans-serif" font-size="46" font-weight="700" fill="#49A9FF">&lt;/&gt;</text>
  <text x="58" y="300" font-family="Inter, Pretendard, Arial, sans-serif" font-size="78" font-weight="800" fill="#F5FAFF">Jong Eun </text>
  <text x="405" y="300" font-family="Inter, Pretendard, Arial, sans-serif" font-size="78" font-weight="800" fill="url(#nameBlue)">Lee</text>
  <text x="58" y="372" font-family="Inter, Pretendard, Arial, sans-serif" font-size="46" font-weight="400" fill="#EEF3FA">Backend Developer Portfolio</text>
  <rect x="58" y="404" width="88" height="5" rx="2.5" fill="url(#lineBlue)"/>
  <text x="58" y="468" font-family="Inter, Pretendard, Arial, sans-serif" font-size="27" font-weight="400" fill="#EEF3FA">Spring Boot</text>
  <circle cx="205" cy="460" r="3.5" fill="#38A4FF"/>
  <text x="220" y="468" font-family="Inter, Pretendard, Arial, sans-serif" font-size="27" font-weight="400" fill="#EEF3FA">FastAPI</text>
  <circle cx="334" cy="460" r="3.5" fill="#38A4FF"/>
  <text x="350" y="468" font-family="Inter, Pretendard, Arial, sans-serif" font-size="27" font-weight="400" fill="#EEF3FA">AWS</text>
  <circle cx="422" cy="460" r="3.5" fill="#38A4FF"/>
  <text x="438" y="468" font-family="Inter, Pretendard, Arial, sans-serif" font-size="27" font-weight="400" fill="#EEF3FA">DevOps</text>

  <!-- Right isometric illustration -->
  <g transform="translate(700 118)" filter="url(#shadow)">
    <!-- cloud -->
    <g filter="url(#softGlow)">
      <path d="M219 25c8-28 34-48 65-48 25 0 47 13 58 34 6-2 12-3 18-3 31 0 56 25 56 56 0 30-24 55-54 56H218c-31 0-56-25-56-56 0-29 22-53 50-56 3 0 5-1 7-1z" fill="none" stroke="#4CB1FF" stroke-width="5"/>
      <path d="M296 103V59M296 59l-13 13M296 59l13 13" stroke="#D8F0FF" stroke-width="5" stroke-linecap="round" stroke-linejoin="round"/>
    </g>

    <!-- connection dashed lines -->
    <path d="M172 148V184M236 136V183M296 132V184M356 136V182" stroke="#3AA6FF" stroke-width="3" stroke-dasharray="8 8" opacity="0.9"/>
    <path d="M134 150l-22 11v64M382 148l26 14v66" stroke="#38A4FF" stroke-width="3" stroke-dasharray="8 8" opacity="0.75" fill="none"/>

    <!-- servers base -->
    <rect x="150" y="192" width="255" height="122" rx="18" fill="#112748"/>
    <rect x="150" y="192" width="255" height="122" rx="18" stroke="#1E4777" stroke-width="2"/>

    <!-- servers -->
    <g>
      <g transform="translate(177 144)">
        <rect x="0" y="0" width="66" height="126" rx="8" fill="#17355E"/>
        <rect x="10" y="18" width="46" height="84" rx="4" fill="#0D223E"/>
        <g fill="#39ABFF">
          <circle cx="18" cy="28" r="1.5"/><circle cx="24" cy="28" r="1.5"/><circle cx="30" cy="28" r="1.5"/>
          <circle cx="18" cy="42" r="1.5"/><circle cx="24" cy="42" r="1.5"/><circle cx="30" cy="42" r="1.5"/>
          <circle cx="18" cy="56" r="1.5"/><circle cx="24" cy="56" r="1.5"/><circle cx="30" cy="56" r="1.5"/>
          <circle cx="18" cy="70" r="1.5"/><circle cx="24" cy="70" r="1.5"/><circle cx="30" cy="70" r="1.5"/>
          <circle cx="18" cy="84" r="1.5"/><circle cx="24" cy="84" r="1.5"/><circle cx="30" cy="84" r="1.5"/>
        </g>
        <g stroke="#76C3FF" stroke-width="1.1">
          <line x1="36" y1="28" x2="49" y2="28"/><line x1="36" y1="42" x2="49" y2="42"/><line x1="36" y1="56" x2="49" y2="56"/><line x1="36" y1="70" x2="49" y2="70"/><line x1="36" y1="84" x2="49" y2="84"/>
        </g>
      </g>
      <g transform="translate(252 158)">
        <rect x="0" y="0" width="66" height="126" rx="8" fill="#17355E"/>
        <rect x="10" y="18" width="46" height="84" rx="4" fill="#0D223E"/>
        <g fill="#39ABFF">
          <circle cx="18" cy="28" r="1.5"/><circle cx="24" cy="28" r="1.5"/><circle cx="30" cy="28" r="1.5"/>
          <circle cx="18" cy="42" r="1.5"/><circle cx="24" cy="42" r="1.5"/><circle cx="30" cy="42" r="1.5"/>
          <circle cx="18" cy="56" r="1.5"/><circle cx="24" cy="56" r="1.5"/><circle cx="30" cy="56" r="1.5"/>
          <circle cx="18" cy="70" r="1.5"/><circle cx="24" cy="70" r="1.5"/><circle cx="30" cy="70" r="1.5"/>
          <circle cx="18" cy="84" r="1.5"/><circle cx="24" cy="84" r="1.5"/><circle cx="30" cy="84" r="1.5"/>
        </g>
        <g stroke="#76C3FF" stroke-width="1.1">
          <line x1="36" y1="28" x2="49" y2="28"/><line x1="36" y1="42" x2="49" y2="42"/><line x1="36" y1="56" x2="49" y2="56"/><line x1="36" y1="70" x2="49" y2="70"/><line x1="36" y1="84" x2="49" y2="84"/>
        </g>
      </g>
      <g transform="translate(327 170)">
        <rect x="0" y="0" width="66" height="126" rx="8" fill="#17355E"/>
        <rect x="10" y="18" width="46" height="84" rx="4" fill="#0D223E"/>
        <g fill="#39ABFF">
          <circle cx="18" cy="28" r="1.5"/><circle cx="24" cy="28" r="1.5"/><circle cx="30" cy="28" r="1.5"/>
          <circle cx="18" cy="42" r="1.5"/><circle cx="24" cy="42" r="1.5"/><circle cx="30" cy="42" r="1.5"/>
          <circle cx="18" cy="56" r="1.5"/><circle cx="24" cy="56" r="1.5"/><circle cx="30" cy="56" r="1.5"/>
          <circle cx="18" cy="70" r="1.5"/><circle cx="24" cy="70" r="1.5"/><circle cx="30" cy="70" r="1.5"/>
          <circle cx="18" cy="84" r="1.5"/><circle cx="24" cy="84" r="1.5"/><circle cx="30" cy="84" r="1.5"/>
        </g>
        <g stroke="#76C3FF" stroke-width="1.1">
          <line x1="36" y1="28" x2="49" y2="28"/><line x1="36" y1="42" x2="49" y2="42"/><line x1="36" y1="56" x2="49" y2="56"/><line x1="36" y1="70" x2="49" y2="70"/><line x1="36" y1="84" x2="49" y2="84"/>
        </g>
      </g>
    </g>

    <!-- api card -->
    <g transform="translate(87 249)">
      <rect x="0" y="0" width="72" height="110" rx="14" fill="#17355E" stroke="#2B5D96" stroke-width="2"/>
      <text x="14" y="48" font-family="Inter, Arial, sans-serif" font-size="24" font-weight="700" fill="#57B8FF">API</text>
      <g stroke="#6CBFFF" stroke-width="2" opacity="0.7">
        <line x1="16" y1="63" x2="50" y2="63"/><line x1="16" y1="74" x2="48" y2="74"/><line x1="16" y1="85" x2="44" y2="85"/>
      </g>
    </g>

    <!-- database -->
    <g transform="translate(434 258)">
      <ellipse cx="44" cy="14" rx="44" ry="14" fill="#274B75"/>
      <rect x="0" y="14" width="88" height="76" rx="8" fill="#17355E"/>
      <ellipse cx="44" cy="90" rx="44" ry="14" fill="#17355E"/>
      <path d="M0 38h88M0 62h88" stroke="#38A4FF" stroke-width="4" opacity="0.9"/>
    </g>

    <!-- lower panels -->
    <g transform="translate(206 386)">
      <rect x="0" y="0" width="128" height="90" rx="14" fill="#133154" stroke="#2B5D96" stroke-width="2"/>
      <circle cx="18" cy="18" r="2.2" fill="#DDF2FF"/><circle cx="28" cy="18" r="2.2" fill="#67BFFF"/><circle cx="38" cy="18" r="2.2" fill="#35A5FF"/>
      <g stroke-width="3" stroke-linecap="round">
        <line x1="18" y1="38" x2="64" y2="38" stroke="#6AC1FF"/>
        <line x1="18" y1="50" x2="76" y2="50" stroke="#2FA4FF"/>
        <line x1="18" y1="62" x2="58" y2="62" stroke="#77C7FF"/>
      </g>
      <text x="98" y="22" font-family="Inter, Arial, sans-serif" font-size="13" font-weight="700" fill="#71C4FF">&lt;/&gt;</text>
    </g>

    <g transform="translate(344 388)">
      <rect x="0" y="0" width="156" height="92" rx="14" fill="#133154" stroke="#2B5D96" stroke-width="2"/>
      <path d="M18 56l24-18 22 12 26-24 26 18" stroke="#40A9FF" stroke-width="3" fill="none" stroke-linecap="round" stroke-linejoin="round"/>
      <circle cx="116" cy="44" r="4" fill="#84D2FF"/>
      <circle cx="40" cy="77" r="13" stroke="#6AC1FF" stroke-width="6"/>
      <g fill="#38A4FF">
        <rect x="108" y="58" width="8" height="18" rx="2"/><rect x="121" y="50" width="8" height="26" rx="2"/><rect x="134" y="42" width="8" height="34" rx="2"/>
      </g>
      <g stroke="#6CBFFF" stroke-width="2" opacity="0.6">
        <line x1="70" y1="72" x2="97" y2="72"/><line x1="70" y1="80" x2="103" y2="80"/>
      </g>
    </g>

    <g transform="translate(110 423)">
      <rect x="0" y="0" width="84" height="102" rx="16" fill="#17355E" stroke="#2B5D96" stroke-width="2"/>
      <path d="M0 18l16-18v18z" fill="#21456F"/>
      <rect x="16" y="18" width="14" height="14" rx="3" fill="#53B5FF"/>
      <g stroke="#71C4FF" stroke-width="2" opacity="0.7">
        <line x1="18" y1="50" x2="55" y2="50"/><line x1="18" y1="62" x2="50" y2="62"/><line x1="18" y1="74" x2="46" y2="74"/>
      </g>
      <circle cx="62" cy="81" r="12" fill="#46AEFF"/>
      <path d="M57 81l4 4 6-8" stroke="#E6F5FF" stroke-width="3" stroke-linecap="round" stroke-linejoin="round"/>
    </g>

    <g transform="translate(505 440)">
      <path d="M0 44c10-8 22-13 36-13 16 0 30 6 41 16-3 15-14 31-41 46C12 79 1 63 0 44z" fill="#17355E" stroke="#46AEFF" stroke-width="3"/>
      <path d="M22 46l10 10 16-20" stroke="#79CBFF" stroke-width="4" stroke-linecap="round" stroke-linejoin="round"/>
    </g>

    <!-- connectors -->
    <g stroke="#38A4FF" stroke-width="3" stroke-linecap="round" fill="none">
      <path d="M122 356c-20 0-28 13-28 25v15"/>
      <path d="M243 314v53"/>
      <path d="M322 314v55"/>
      <path d="M478 348v32"/>
      <path d="M192 474h14c11 0 18 9 18 18v4" stroke-dasharray="4 8" opacity="0.8"/>
    </g>
    <g fill="#89D3FF">
      <circle cx="243" cy="367" r="4"/><circle cx="322" cy="369" r="4"/><circle cx="478" cy="380" r="4"/><circle cx="94" cy="396" r="4"/>
    </g>
  </g>
</svg>
