<svg width="960" height="600" viewBox="0 0 960 600" fill="none" xmlns="http://www.w3.org/2000/svg">
  <rect width="960" height="600" rx="28" fill="#07111f"/>
  <rect x="48" y="44" width="864" height="512" rx="22" fill="#0d1b2f" stroke="#1e3a5f"/>
  <rect x="84" y="84" width="180" height="432" rx="14" fill="#07111f" stroke="#1f3555"/>
  <rect x="300" y="84" width="576" height="188" rx="14" fill="#081525" stroke="#1f3555"/>
  <rect x="300" y="304" width="276" height="212" rx="14" fill="#081525" stroke="#1f3555"/>
  <rect x="600" y="304" width="276" height="212" rx="14" fill="#081525" stroke="#1f3555"/>
  <circle cx="112" cy="118" r="8" fill="#2563eb"/>
  <circle cx="112" cy="162" r="8" fill="#22c55e"/>
  <circle cx="112" cy="206" r="8" fill="#f97316"/>
  <rect x="136" y="110" width="96" height="14" rx="7" fill="#334155"/>
  <rect x="136" y="154" width="82" height="14" rx="7" fill="#334155"/>
  <rect x="136" y="198" width="108" height="14" rx="7" fill="#334155"/>
  <path d="M340 222C382 168 422 192 466 150C510 108 558 140 604 126C650 112 692 72 744 122C784 162 814 146 842 112" stroke="#3b82f6" stroke-width="8" stroke-linecap="round"/>
  <path d="M340 232C382 202 426 218 470 206C520 192 562 218 610 196C660 174 710 186 756 176C800 166 820 178 842 160" stroke="#22c55e" stroke-width="5" stroke-linecap="round"/>
  <rect x="330" y="334" width="210" height="16" rx="8" fill="#334155"/>
  <rect x="330" y="374" width="168" height="16" rx="8" fill="#1d4ed8"/>
  <rect x="330" y="414" width="196" height="16" rx="8" fill="#334155"/>
  <rect x="330" y="454" width="132" height="16" rx="8" fill="#f97316"/>
  <rect x="640" y="342" width="44" height="124" rx="8" fill="#2563eb"/>
  <rect x="704" y="374" width="44" height="92" rx="8" fill="#22c55e"/>
  <rect x="768" y="326" width="44" height="140" rx="8" fill="#3b82f6"/>
  <path d="M48 430C164 382 250 404 356 448C486 502 604 512 912 398V556H48V430Z" fill="#2563eb" fill-opacity="0.09"/>
</svg>
