<svg width="960" height="600" viewBox="0 0 960 600" fill="none" xmlns="http://www.w3.org/2000/svg">
  <rect width="960" height="600" rx="28" fill="#07111f"/>
  <rect x="48" y="44" width="864" height="512" rx="22" fill="#0d1b2f" stroke="#1e3a5f"/>
  <rect x="82" y="86" width="560" height="390" rx="16" fill="#081525" stroke="#1f3555"/>
  <rect x="674" y="86" width="202" height="390" rx="16" fill="#081525" stroke="#1f3555"/>
  <circle cx="116" cy="122" r="7" fill="#ef4444"/>
  <circle cx="140" cy="122" r="7" fill="#f59e0b"/>
  <circle cx="164" cy="122" r="7" fill="#22c55e"/>
  <rect x="112" y="170" width="170" height="12" rx="6" fill="#2563eb"/>
  <rect x="112" y="210" width="420" height="12" rx="6" fill="#334155"/>
  <rect x="112" y="246" width="360" height="12" rx="6" fill="#334155"/>
  <rect x="112" y="282" width="456" height="12" rx="6" fill="#1d4ed8"/>
  <rect x="112" y="318" width="300" height="12" rx="6" fill="#334155"/>
  <rect x="112" y="354" width="392" height="12" rx="6" fill="#f97316"/>
  <rect x="112" y="390" width="248" height="12" rx="6" fill="#334155"/>
  <circle cx="742" cy="166" r="36" fill="#2563eb" fill-opacity="0.18" stroke="#3b82f6"/>
  <path d="M724 166L738 180L764 150" stroke="#93c5fd" stroke-width="8" stroke-linecap="round" stroke-linejoin="round"/>
  <rect x="706" y="236" width="132" height="14" rx="7" fill="#334155"/>
  <rect x="706" y="276" width="108" height="14" rx="7" fill="#334155"/>
  <rect x="706" y="316" width="142" height="14" rx="7" fill="#1d4ed8"/>
  <rect x="706" y="356" width="92" height="14" rx="7" fill="#334155"/>
  <path d="M656 488C716 428 772 510 842 448C878 416 894 388 912 360V556H48V508C214 474 310 528 456 506C538 494 596 548 656 488Z" fill="#3b82f6" fill-opacity="0.1"/>
</svg>
